<svg width="23" height="25" viewBox="0 0 23 25" fill="none" xmlns="http://www.w3.org/2000/svg">
<path d="M6.73475 0.864258L6.37716 1.5625H1.60931C0.730232 1.5625 0.0200195 2.26074 0.0200195 3.125C0.0200195 3.98926 0.730232 4.6875 1.60931 4.6875H20.6807C21.5598 4.6875 22.27 3.98926 22.27 3.125C22.27 2.26074 21.5598 1.5625 20.6807 1.5625H15.9129L15.5553 0.864258C15.2871 0.332031 14.7358 0 14.1349 0H8.15518C7.55423 0 7.00294 0.332031 6.73475 0.864258V0.864258ZM20.6807 6.25H1.60931L2.66221 22.8027C2.74167 24.0381 3.78464 25 5.04117 25H17.2489C18.5054 25 19.5484 24.0381 19.6278 22.8027L20.6807 6.25Z" fill="#F9AA01"/>
</svg>
