<svg width="21" height="21" viewBox="0 0 21 21" fill="none" xmlns="http://www.w3.org/2000/svg">
<path d="M4.95068 0.540726L4.95089 0.540669C5.48407 0.395007 6.03952 0.65161 6.27551 1.14356L6.30164 1.20627L7.94219 5.1436L7.94228 5.1438C8.13599 5.60814 8.00239 6.14357 7.61151 6.46313L5.58954 8.11597L5.28682 8.36343L5.454 8.71688C6.86922 11.7088 9.29118 14.1308 12.2831 15.546L12.6361 15.713L12.8836 15.4109L14.5406 13.3889L14.5406 13.389L14.5424 13.3868C14.8567 12.9988 15.3947 12.8635 15.8603 13.0577L15.8605 13.0578L19.7978 14.6984L19.7989 14.6988C20.3281 14.9179 20.6106 15.4955 20.4593 16.0491L20.4593 16.0493L19.4753 19.6571C19.4753 19.6573 19.4752 19.6575 19.4752 19.6577C19.3375 20.1558 18.8856 20.5 18.3742 20.5C8.50351 20.5 0.5 12.4965 0.5 2.62581C0.5 2.11442 0.844124 1.66257 1.34222 1.52485C1.34244 1.52479 1.34266 1.52473 1.34287 1.52467L4.95068 0.540726Z" fill="#FAFAFA" stroke="black"/>
</svg>
