<svg width="33" height="31" viewBox="0 0 33 31" fill="none" xmlns="http://www.w3.org/2000/svg">
<path d="M30.1666 24.8958C30.8247 24.8961 31.4575 25.1496 31.9337 25.6038C32.41 26.0579 32.6933 26.6779 32.7249 27.3352C32.7565 27.9925 32.5341 28.6368 32.1036 29.1345C31.6731 29.6323 31.0677 29.9454 30.4126 30.0089L30.1666 30.0208H2.83331C2.17523 30.0205 1.54251 29.767 1.06624 29.3129C0.589966 28.8587 0.306667 28.2388 0.275042 27.5815C0.243417 26.9241 0.465891 26.2799 0.896363 25.7821C1.32683 25.2843 1.93231 24.9713 2.58731 24.9078L2.83331 24.8958H30.1666ZM30.1666 12.9375C30.8463 12.9375 31.498 13.2075 31.9786 13.688C32.4592 14.1686 32.7291 14.8204 32.7291 15.5C32.7291 16.1796 32.4592 16.8314 31.9786 17.312C31.498 17.7925 30.8463 18.0625 30.1666 18.0625H2.83331C2.1537 18.0625 1.50191 17.7925 1.02135 17.312C0.54079 16.8314 0.270813 16.1796 0.270813 15.5C0.270813 14.8204 0.54079 14.1686 1.02135 13.688C1.50191 13.2075 2.1537 12.9375 2.83331 12.9375H30.1666ZM30.1666 0.979156C30.8463 0.979156 31.498 1.24913 31.9786 1.7297C32.4592 2.21026 32.7291 2.86204 32.7291 3.54166C32.7291 4.22127 32.4592 4.87306 31.9786 5.35362C31.498 5.83418 30.8463 6.10416 30.1666 6.10416H2.83331C2.1537 6.10416 1.50191 5.83418 1.02135 5.35362C0.54079 4.87306 0.270813 4.22127 0.270813 3.54166C0.270813 2.86204 0.54079 2.21026 1.02135 1.7297C1.50191 1.24913 2.1537 0.979156 2.83331 0.979156H30.1666Z" fill="white"/>
</svg>
