<svg width="24" height="24" viewBox="0 0 24 24" fill="none" xmlns="http://www.w3.org/2000/svg">
<path d="M12 12C10.35 12 8.9375 11.4125 7.7625 10.2375C6.5875 9.0625 6 7.65 6 6C6 4.35 6.5875 2.9375 7.7625 1.7625C8.9375 0.5875 10.35 0 12 0C13.65 0 15.0625 0.5875 16.2375 1.7625C17.4125 2.9375 18 4.35 18 6C18 7.65 17.4125 9.0625 16.2375 10.2375C15.0625 11.4125 13.65 12 12 12ZM0 24V19.8C0 18.95 0.219 18.1685 0.657 17.4555C1.094 16.7435 1.675 16.2 2.4 15.825C3.95 15.05 5.525 14.4685 7.125 14.0805C8.725 13.6935 10.35 13.5 12 13.5C13.65 13.5 15.275 13.6935 16.875 14.0805C18.475 14.4685 20.05 15.05 21.6 15.825C22.325 16.2 22.906 16.7435 23.343 17.4555C23.781 18.1685 24 18.95 24 19.8V24H0Z" fill="white"/>
</svg>
