<svg width="163" height="61" viewBox="0 0 163 61" fill="none" xmlns="http://www.w3.org/2000/svg">
<rect width="163" height="61" rx="8" fill="url(#paint0_radial_3_15)"/>
<path d="M28.416 44.248C28.272 44.248 28.24 44.136 28.32 43.912C28.416 43.704 28.504 43.512 28.584 43.336C28.728 43.048 28.8 42.6 28.8 41.992C28.8 41.464 28.704 40.896 28.512 40.288C28.32 39.68 27.944 39.128 27.384 38.632C26.616 37.928 25.752 37.368 24.792 36.952C23.832 36.536 22.824 36.2 21.768 35.944C20.728 35.688 19.696 35.464 18.672 35.272C18.048 36.136 17.376 36.912 16.656 37.6C15.952 38.288 15.2 38.816 14.4 39.184C13.952 39.392 13.52 39.544 13.104 39.64C12.688 39.752 12.296 39.808 11.928 39.808C11.032 39.808 10.296 39.568 9.72 39.088C9.16 38.624 8.88 38.072 8.88 37.432C8.88 36.824 9.152 36.232 9.696 35.656C10.256 35.064 11.176 34.576 12.456 34.192C12.968 34.048 13.536 33.944 14.16 33.88C14.784 33.8 15.432 33.76 16.104 33.76C16.52 33.76 16.928 33.776 17.328 33.808C17.744 33.824 18.128 33.872 18.48 33.952C18.944 33.248 19.376 32.52 19.776 31.768C20.176 31 20.592 30.168 21.024 29.272C19.76 29.304 18.664 29.12 17.736 28.72C16.808 28.304 16.088 27.752 15.576 27.064C15.08 26.376 14.832 25.64 14.832 24.856C14.832 24.216 15.016 23.592 15.384 22.984C15.752 22.36 16.328 21.8 17.112 21.304C17.912 20.792 18.928 20.392 20.16 20.104C20.24 20.072 20.312 20.056 20.376 20.056C20.456 20.056 20.528 20.056 20.592 20.056C20.832 20.056 20.952 20.104 20.952 20.2C20.952 20.36 20.696 20.472 20.184 20.536C19.352 20.632 18.616 20.928 17.976 21.424C17.352 21.92 16.864 22.512 16.512 23.2C16.176 23.888 16.008 24.584 16.008 25.288C16.008 25.896 16.152 26.464 16.44 26.992C16.728 27.52 17.184 27.952 17.808 28.288C18.432 28.608 19.24 28.768 20.232 28.768C20.584 28.768 20.96 28.744 21.36 28.696C21.424 28.568 21.528 28.312 21.672 27.928C21.832 27.528 22.008 27.08 22.2 26.584C22.392 26.088 22.576 25.608 22.752 25.144C22.944 24.68 23.096 24.296 23.208 23.992C23.336 23.672 23.4 23.512 23.4 23.512C24.136 21.672 24.888 20.232 25.656 19.192C26.44 18.136 27.192 17.392 27.912 16.96C28.648 16.528 29.304 16.312 29.88 16.312C30.504 16.312 31.016 16.496 31.416 16.864C31.832 17.232 32.056 17.648 32.088 18.112C32.104 18.256 32.112 18.36 32.112 18.424C32.112 18.488 32.112 18.568 32.112 18.664C32.112 19.608 31.92 20.552 31.536 21.496C31.168 22.44 30.648 23.336 29.976 24.184C29.32 25.032 28.56 25.8 27.696 26.488C26.848 27.176 25.936 27.752 24.96 28.216C24 28.68 23.024 29 22.032 29.176C21.792 29.656 21.576 30.088 21.384 30.472C21.208 30.84 21.008 31.24 20.784 31.672C20.56 32.104 20.264 32.656 19.896 33.328C19.784 33.536 19.696 33.688 19.632 33.784C19.584 33.864 19.504 33.992 19.392 34.168C20.192 34.36 21.064 34.632 22.008 34.984C22.952 35.32 23.88 35.728 24.792 36.208C25.72 36.672 26.544 37.184 27.264 37.744C28.16 38.432 28.792 39.208 29.16 40.072C29.544 40.936 29.736 41.696 29.736 42.352C29.736 42.816 29.664 43.168 29.52 43.408C29.312 43.76 29.104 43.984 28.896 44.08C28.688 44.192 28.528 44.248 28.416 44.248ZM22.368 28.528C23.456 28.288 24.52 27.856 25.56 27.232C26.6 26.592 27.536 25.824 28.368 24.928C29.2 24.016 29.864 23.032 30.36 21.976C30.856 20.904 31.104 19.816 31.104 18.712C31.104 18.44 31.032 18.216 30.888 18.04C30.744 17.864 30.536 17.776 30.264 17.776C29.896 17.776 29.424 17.984 28.848 18.4C28.272 18.8 27.616 19.48 26.88 20.44C26.144 21.384 25.352 22.688 24.504 24.352C24.504 24.352 24.392 24.56 24.168 24.976C23.96 25.392 23.688 25.92 23.352 26.56C23.032 27.184 22.704 27.84 22.368 28.528ZM11.592 39.112C11.944 39.112 12.32 39.064 12.72 38.968C13.136 38.872 13.568 38.72 14.016 38.512C15.36 37.856 16.6 36.72 17.736 35.104C17.368 35.024 16.984 34.968 16.584 34.936C16.184 34.888 15.776 34.864 15.36 34.864C14.928 34.864 14.48 34.888 14.016 34.936C13.568 34.984 13.128 35.072 12.696 35.2C11.624 35.488 10.8 35.856 10.224 36.304C9.664 36.752 9.384 37.208 9.384 37.672C9.384 38.072 9.584 38.408 9.984 38.68C10.384 38.968 10.92 39.112 11.592 39.112ZM30.4517 37.936C30.0997 37.936 29.7397 37.912 29.3717 37.864C28.3637 37.736 27.6197 37.44 27.1397 36.976C26.6757 36.512 26.4437 36.008 26.4437 35.464C26.4437 34.872 26.7077 34.336 27.2357 33.856C27.7637 33.36 28.5077 33.112 29.4677 33.112C30.1077 33.112 30.8037 33.24 31.5557 33.496C31.9717 33.64 32.4677 33.88 33.0437 34.216C33.6197 34.552 34.2837 34.904 35.0357 35.272C35.8357 34.504 36.5637 33.552 37.2197 32.416C37.8917 31.28 38.5557 30.064 39.2117 28.768C39.8837 27.456 40.6037 26.144 41.3717 24.832C42.1557 23.52 43.0597 22.288 44.0837 21.136L45.4757 19.576C44.8837 19.48 44.2677 19.408 43.6277 19.36C42.9877 19.296 42.3237 19.264 41.6357 19.264C40.7717 19.264 39.8837 19.312 38.9717 19.408C38.0597 19.488 37.1477 19.624 36.2357 19.816C34.7317 20.136 33.4597 20.648 32.4197 21.352C31.3797 22.056 30.5877 22.824 30.0437 23.656C29.5157 24.472 29.2517 25.24 29.2517 25.96C29.2517 26.456 29.3877 26.904 29.6597 27.304C29.9477 27.688 30.3717 27.968 30.9317 28.144C31.2837 28.256 31.6437 28.312 32.0117 28.312C32.5557 28.312 33.0357 28.2 33.4517 27.976C33.8677 27.752 34.2197 27.48 34.5077 27.16C34.7957 26.824 35.0037 26.504 35.1317 26.2C35.2757 25.896 35.3397 25.672 35.3237 25.528C35.3237 25.416 35.4037 25.36 35.5637 25.36C35.7237 25.36 35.8037 25.48 35.8037 25.72V25.744C35.8037 26.4 35.6037 26.968 35.2037 27.448C34.8037 27.928 34.2997 28.296 33.6917 28.552C33.0997 28.808 32.4997 28.936 31.8917 28.936C31.5077 28.936 31.1077 28.872 30.6917 28.744C29.8277 28.44 29.1877 28 28.7717 27.424C28.3557 26.832 28.1477 26.184 28.1477 25.48C28.1477 24.824 28.3237 24.152 28.6757 23.464C29.0437 22.76 29.5797 22.096 30.2837 21.472C30.9877 20.832 31.8597 20.28 32.8997 19.816C33.9557 19.352 35.1717 19.024 36.5477 18.832C37.2837 18.72 38.0117 18.64 38.7317 18.592C39.4517 18.544 40.1477 18.52 40.8197 18.52C41.7477 18.52 42.6517 18.568 43.5317 18.664C44.4277 18.744 45.2677 18.872 46.0517 19.048C46.2757 18.856 46.4997 18.688 46.7237 18.544C46.9637 18.4 47.1797 18.288 47.3717 18.208C47.4837 18.16 47.5797 18.128 47.6597 18.112C47.7397 18.096 47.8037 18.088 47.8517 18.088C47.9477 18.088 47.9957 18.12 47.9957 18.184C47.9957 18.264 47.8757 18.392 47.6357 18.568C47.4757 18.68 47.3237 18.808 47.1797 18.952C47.0357 19.08 46.9477 19.176 46.9157 19.24C48.5477 19.656 49.8677 20.232 50.8757 20.968C51.8997 21.688 52.4117 22.544 52.4117 23.536C52.4117 24.048 52.2437 24.608 51.9077 25.216C51.5557 25.808 51.0677 26.288 50.4437 26.656C49.8197 27.008 49.1557 27.272 48.4517 27.448C47.7477 27.608 47.0917 27.704 46.4837 27.736C47.0117 27.896 47.5877 28.136 48.2117 28.456C48.8517 28.76 49.4357 29.136 49.9637 29.584C50.5077 30.032 50.8677 30.56 51.0437 31.168C51.1557 31.552 51.2117 31.944 51.2117 32.344C51.2117 33.192 50.9637 33.96 50.4677 34.648C49.9877 35.336 49.3397 35.928 48.5237 36.424C47.7237 36.904 46.8437 37.272 45.8837 37.528C44.9237 37.8 43.9717 37.936 43.0277 37.936C42.6757 37.936 42.3157 37.912 41.9477 37.864C40.4117 37.672 39.1397 37.432 38.1317 37.144C37.1397 36.856 36.2677 36.536 35.5157 36.184C33.9637 37.352 32.2757 37.936 30.4517 37.936ZM42.6917 37.24C43.6837 37.24 44.5877 37.088 45.4037 36.784C46.2197 36.48 46.9237 36.08 47.5157 35.584C48.1237 35.088 48.5877 34.536 48.9077 33.928C49.2437 33.32 49.4117 32.72 49.4117 32.128C49.4117 31.568 49.2437 31.024 48.9077 30.496C48.5717 29.968 48.0437 29.528 47.3237 29.176C46.6997 28.872 46.0517 28.624 45.3797 28.432C44.7237 28.224 44.1557 28.048 43.6757 27.904C43.1957 27.744 42.9157 27.584 42.8357 27.424C42.8357 27.232 42.9157 27.104 43.0757 27.04C43.2517 26.96 43.4757 26.92 43.7477 26.92C44.0677 26.92 44.4517 26.944 44.8997 26.992C45.3477 27.04 45.8197 27.064 46.3157 27.064C46.8277 27.064 47.3477 26.952 47.8757 26.728C48.4197 26.488 48.9157 26.176 49.3637 25.792C49.8117 25.392 50.1717 24.96 50.4437 24.496C50.7317 24.016 50.8757 23.528 50.8757 23.032C50.8757 22.584 50.7237 22.144 50.4197 21.712C50.1157 21.28 49.6117 20.904 48.9077 20.584C48.2037 20.264 47.4437 20.008 46.6277 19.816C45.8277 20.92 45.0277 22.16 44.2277 23.536C43.4277 24.896 42.6277 26.28 41.8277 27.688C41.0277 29.08 40.2197 30.4 39.4037 31.648C38.5877 32.896 37.7717 33.968 36.9557 34.864C36.7637 35.072 36.6117 35.232 36.4997 35.344C36.3877 35.44 36.2357 35.576 36.0437 35.752C36.7957 36.056 37.6517 36.344 38.6117 36.616C39.5717 36.888 40.6677 37.08 41.8997 37.192C42.0277 37.208 42.1557 37.216 42.2837 37.216C42.4277 37.232 42.5637 37.24 42.6917 37.24ZM29.9717 37.192C30.8677 37.24 31.6837 37.136 32.4197 36.88C33.1717 36.608 33.8677 36.232 34.5077 35.752C33.9477 35.48 33.3717 35.2 32.7797 34.912C32.2037 34.608 31.5877 34.336 30.9317 34.096C30.4677 33.936 30.0437 33.856 29.6597 33.856C29.0677 33.856 28.6197 34.016 28.3157 34.336C28.0117 34.64 27.8597 34.992 27.8597 35.392C27.8597 35.808 28.0357 36.208 28.3877 36.592C28.7397 36.96 29.2677 37.16 29.9717 37.192ZM58.8887 38.464C58.1847 38.464 57.5127 38.36 56.8727 38.152C55.9127 37.848 55.1367 37.192 54.5447 36.184C53.9687 35.176 53.6807 34 53.6807 32.656C53.6807 31.488 53.9207 30.28 54.4007 29.032C53.8887 28.664 53.4647 28.232 53.1287 27.736C52.7927 27.24 52.5927 26.664 52.5287 26.008C52.5127 25.88 52.5047 25.768 52.5047 25.672C52.5047 25.56 52.5047 25.448 52.5047 25.336C52.5047 24.232 52.7527 23.248 53.2487 22.384C53.7607 21.52 54.4407 20.792 55.2887 20.2C56.1367 19.592 57.0887 19.136 58.1447 18.832C59.2007 18.512 60.2727 18.352 61.3607 18.352C62.4327 18.352 63.4727 18.512 64.4807 18.832C65.4887 19.152 66.3847 19.648 67.1687 20.32C67.9687 20.992 68.5847 21.848 69.0167 22.888C69.4647 23.912 69.6567 25.144 69.5927 26.584C70.2487 26.152 70.8647 25.688 71.4407 25.192C72.0167 24.696 72.4567 24.152 72.7607 23.56C72.8407 23.4 72.9447 23.32 73.0727 23.32C73.1687 23.32 73.2167 23.376 73.2167 23.488C73.2167 23.504 73.2087 23.552 73.1927 23.632C73.1767 23.696 73.1527 23.752 73.1207 23.8C72.6727 24.504 72.1527 25.168 71.5607 25.792C70.9687 26.416 70.2807 26.968 69.4967 27.448C69.4807 27.8 69.4247 28.2 69.3287 28.648C69.2487 29.08 69.1287 29.536 68.9687 30.016C68.6647 30.992 68.1767 31.976 67.5047 32.968C66.8487 33.96 66.0647 34.872 65.1527 35.704C64.2407 36.536 63.2487 37.2 62.1767 37.696C61.1047 38.208 60.0087 38.464 58.8887 38.464ZM59.6807 29.56C61.0247 29.56 62.4407 29.368 63.9287 28.984C65.4327 28.584 66.8407 28.04 68.1527 27.352C68.1847 27.144 68.2007 26.944 68.2007 26.752C68.2007 26.544 68.2007 26.344 68.2007 26.152C68.2007 24.84 68.0087 23.72 67.6247 22.792C67.2567 21.848 66.7527 21.08 66.1127 20.488C65.4727 19.896 64.7527 19.464 63.9527 19.192C63.1527 18.904 62.3207 18.76 61.4567 18.76C60.5287 18.76 59.6087 18.912 58.6967 19.216C57.7847 19.52 56.9607 19.96 56.2247 20.536C55.4887 21.096 54.8967 21.776 54.4487 22.576C54.0167 23.376 53.8007 24.272 53.8007 25.264C53.8007 25.568 53.8247 25.88 53.8727 26.2C53.9687 26.936 54.2887 27.544 54.8327 28.024C55.0567 27.544 55.3607 27.008 55.7447 26.416C56.1287 25.808 56.5687 25.2 57.0647 24.592C57.5767 23.968 58.1207 23.4 58.6967 22.888C59.2887 22.376 59.8967 21.968 60.5207 21.664C61.1607 21.344 61.8007 21.184 62.4407 21.184C62.7127 21.184 62.9847 21.216 63.2567 21.28C63.5447 21.344 63.8167 21.456 64.0727 21.616C64.2007 21.696 64.2647 21.768 64.2647 21.832C64.2647 21.88 64.2247 21.92 64.1447 21.952C64.0807 21.984 63.9927 21.984 63.8807 21.952C63.6727 21.888 63.4407 21.856 63.1847 21.856C62.6087 21.856 62.0247 22.032 61.4327 22.384C60.8407 22.72 60.2647 23.168 59.7047 23.728C59.1447 24.272 58.6247 24.864 58.1447 25.504C57.6647 26.128 57.2407 26.744 56.8727 27.352C56.5207 27.944 56.2487 28.448 56.0567 28.864C57.0327 29.328 58.2407 29.56 59.6807 29.56ZM59.0807 37.888C59.9767 37.888 60.8487 37.664 61.6967 37.216C62.5607 36.768 63.3687 36.16 64.1207 35.392C64.8887 34.624 65.5687 33.768 66.1607 32.824C66.7527 31.88 67.2247 30.912 67.5767 29.92C67.6727 29.648 67.7607 29.368 67.8407 29.08C67.9207 28.776 67.9687 28.488 67.9847 28.216C66.6887 28.904 65.3047 29.432 63.8327 29.8C62.3607 30.168 60.9527 30.352 59.6087 30.352C58.1207 30.352 56.8247 30.136 55.7207 29.704C55.2247 30.968 54.9767 32.208 54.9767 33.424C54.9767 34.304 55.1367 35.096 55.4567 35.8C55.7767 36.504 56.2807 37.032 56.9687 37.384C57.6727 37.72 58.3767 37.888 59.0807 37.888ZM72.8679 23.872C72.8359 23.888 72.8119 23.904 72.7959 23.92C72.7799 23.92 72.7559 23.92 72.7239 23.92C72.6439 23.92 72.6039 23.888 72.6039 23.824C72.6039 23.728 72.6759 23.656 72.8199 23.608C73.2839 23.464 73.6919 23.216 74.0439 22.864C74.3959 22.512 74.6039 22.064 74.6679 21.52C74.4599 21.68 74.2279 21.76 73.9719 21.76C73.7319 21.76 73.5319 21.688 73.3719 21.544C73.2119 21.384 73.1319 21.192 73.1319 20.968C73.1319 20.616 73.2519 20.336 73.4919 20.128C73.7319 19.904 74.0039 19.792 74.3079 19.792C74.6599 19.792 74.9079 19.928 75.0519 20.2C75.2119 20.472 75.2919 20.768 75.2919 21.088C75.2919 21.616 75.1559 22.072 74.8839 22.456C74.6279 22.824 74.3079 23.128 73.9239 23.368C73.5559 23.592 73.2039 23.76 72.8679 23.872ZM74.5523 37.096C73.7683 37.096 73.2083 36.896 72.8723 36.496C72.5522 36.08 72.3922 35.648 72.3922 35.2C72.3922 34.832 72.4802 34.496 72.6562 34.192C72.8483 33.888 73.0723 33.728 73.3283 33.712C73.6483 33.088 73.9923 32.408 74.3603 31.672C74.7443 30.936 75.0963 30.224 75.4163 29.536C75.6403 29.072 75.9203 28.624 76.2563 28.192C76.6083 27.76 76.9923 27.512 77.4083 27.448H77.6483C77.7763 27.448 77.8883 27.456 77.9843 27.472C78.0963 27.488 78.2083 27.52 78.3203 27.568C78.4963 27.648 78.5843 27.768 78.5843 27.928C78.5843 28.024 78.5283 28.072 78.4163 28.072C78.3683 28.072 78.3043 28.048 78.2243 28C78.0323 27.92 77.8643 27.88 77.7203 27.88C77.6243 27.88 77.5363 27.904 77.4563 27.952C77.1523 28.112 76.9363 28.336 76.8083 28.624C76.6963 28.912 76.6403 29.216 76.6403 29.536C76.6403 29.792 76.6643 30.056 76.7123 30.328C76.7763 30.584 76.8483 30.816 76.9283 31.024C77.1043 31.472 77.2883 31.912 77.4803 32.344C77.6883 32.776 77.7923 33.24 77.7923 33.736C77.7923 34.216 77.6323 34.728 77.3123 35.272C76.9923 35.8 76.5843 36.224 76.0883 36.544L76.2563 36.568C76.3363 36.584 76.3923 36.592 76.4243 36.592C76.4563 36.592 76.4803 36.592 76.4963 36.592C76.8643 36.592 77.2083 36.488 77.5283 36.28C77.8643 36.056 78.1603 35.784 78.4163 35.464C78.6723 35.144 78.9603 34.696 79.2803 34.12C79.6163 33.544 79.9363 32.936 80.2403 32.296C80.2883 32.216 80.3443 32.176 80.4083 32.176C80.4883 32.176 80.5443 32.208 80.5763 32.272C80.6243 32.32 80.6323 32.384 80.6003 32.464C80.3923 32.912 80.1523 33.4 79.8803 33.928C79.6243 34.44 79.3283 34.936 78.9922 35.416C78.6563 35.88 78.2643 36.264 77.8163 36.568C77.3843 36.856 76.8963 37 76.3523 37C76.2243 37 76.0883 36.992 75.9443 36.976C75.8003 36.96 75.6563 36.928 75.5123 36.88C75.3523 36.944 75.1843 36.992 75.0083 37.024C74.8483 37.072 74.6963 37.096 74.5523 37.096ZM75.2723 36.376C75.5443 36.152 75.7843 35.824 75.9923 35.392C76.2163 34.96 76.3283 34.392 76.3283 33.688C76.3283 33.064 76.2643 32.4 76.1363 31.696C76.0083 30.992 75.9443 30.368 75.9443 29.824C75.9443 29.712 75.9443 29.616 75.9443 29.536C75.9603 29.44 75.9763 29.352 75.9923 29.272C75.7843 29.704 75.5443 30.208 75.2723 30.784C75.0003 31.344 74.7283 31.888 74.4563 32.416C74.1843 32.944 73.9523 33.392 73.7603 33.76C73.7603 33.76 73.8003 33.768 73.8803 33.784C73.9763 33.784 74.0643 33.84 74.1443 33.952C74.2243 34.048 74.2563 34.248 74.2402 34.552C74.2243 34.952 74.3123 35.328 74.5043 35.68C74.7123 36.016 74.9683 36.248 75.2723 36.376ZM74.3603 36.712C74.4563 36.712 74.5443 36.704 74.6243 36.688C74.7043 36.656 74.7763 36.632 74.8403 36.616C74.6003 36.44 74.3843 36.208 74.1923 35.92C74.0163 35.616 73.9123 35.232 73.8803 34.768C73.5923 35.072 73.4482 35.4 73.4482 35.752C73.4482 36.008 73.5283 36.232 73.6883 36.424C73.8483 36.616 74.0723 36.712 74.3603 36.712ZM89.2067 37.936C88.8387 37.936 88.4627 37.912 88.0787 37.864C87.0707 37.736 86.3267 37.44 85.8467 36.976C85.3827 36.496 85.1507 35.984 85.1507 35.44C85.1507 34.848 85.4067 34.312 85.9187 33.832C86.4467 33.352 87.1907 33.112 88.1507 33.112C88.7907 33.112 89.4867 33.24 90.2387 33.496C90.5587 33.592 90.9507 33.76 91.4147 34C91.8947 34.224 92.3667 34.456 92.8307 34.696C93.2947 34.936 93.6547 35.128 93.9107 35.272C94.6147 34.584 95.2627 33.792 95.8547 32.896C96.4627 31.984 97.0387 31.016 97.5827 29.992C98.1267 28.952 98.6787 27.904 99.2387 26.848C99.7987 25.792 100.383 24.768 100.991 23.776C101.615 22.768 102.303 21.848 103.055 21.016C102.223 20.504 101.303 20.112 100.295 19.84C99.3027 19.552 98.2787 19.408 97.2227 19.408C96.8227 19.408 96.4147 19.432 95.9987 19.48C95.5987 19.528 95.1907 19.592 94.7747 19.672C93.2867 19.992 92.0307 20.504 91.0067 21.208C89.9827 21.896 89.2067 22.656 88.6787 23.488C88.1667 24.304 87.9107 25.08 87.9107 25.816C87.9107 26.36 88.0547 26.84 88.3427 27.256C88.6307 27.672 89.0707 27.968 89.6627 28.144C90.0947 28.272 90.4707 28.336 90.7907 28.336C91.3187 28.336 91.7747 28.232 92.1587 28.024C92.5587 27.8 92.8947 27.528 93.1667 27.208C93.4387 26.888 93.6387 26.576 93.7667 26.272C93.9107 25.968 93.9907 25.72 94.0067 25.528C94.0067 25.416 94.0787 25.36 94.2227 25.36C94.4467 25.36 94.5347 25.496 94.4867 25.768C94.4067 26.408 94.1667 26.968 93.7667 27.448C93.3667 27.912 92.8867 28.28 92.3267 28.552C91.7667 28.808 91.1907 28.936 90.5987 28.936C90.2147 28.936 89.8147 28.872 89.3987 28.744C88.6627 28.488 88.0387 28.048 87.5267 27.424C87.0307 26.784 86.7827 26.032 86.7827 25.168C86.7827 24.32 87.0627 23.472 87.6227 22.624C88.1987 21.76 89.1107 20.984 90.3587 20.296C91.6067 19.608 93.2387 19.12 95.2547 18.832C95.9267 18.736 96.6067 18.688 97.2947 18.688C98.4307 18.688 99.5427 18.824 100.631 19.096C101.735 19.368 102.775 19.76 103.751 20.272L104.351 19.576C104.495 19.448 104.695 19.288 104.951 19.096C105.223 18.904 105.495 18.72 105.767 18.544C106.039 18.368 106.239 18.256 106.367 18.208C106.575 18.128 106.743 18.088 106.871 18.088C106.967 18.088 107.015 18.112 107.015 18.16C107.015 18.272 106.887 18.408 106.631 18.568C106.471 18.68 106.327 18.808 106.199 18.952C106.071 19.08 105.975 19.184 105.911 19.264C105.671 19.6 105.479 19.872 105.335 20.08C105.207 20.288 105.031 20.56 104.807 20.896C106.279 21.872 107.479 23.136 108.407 24.688C109.335 26.224 109.799 27.984 109.799 29.968C109.799 30.384 109.775 30.808 109.727 31.24C109.631 32.264 109.351 33.192 108.887 34.024C108.423 34.856 107.815 35.56 107.063 36.136C106.327 36.712 105.503 37.152 104.591 37.456C103.695 37.776 102.751 37.936 101.759 37.936C101.391 37.936 101.023 37.912 100.655 37.864C99.0867 37.672 97.7907 37.416 96.7667 37.096C95.7587 36.792 94.8707 36.472 94.1027 36.136C92.6467 37.336 91.0147 37.936 89.2067 37.936ZM101.351 37.216C102.631 37.216 103.759 36.944 104.735 36.4C105.727 35.84 106.527 35.112 107.135 34.216C107.743 33.32 108.103 32.352 108.215 31.312C108.263 30.928 108.287 30.544 108.287 30.16C108.287 28.416 107.911 26.832 107.159 25.408C106.423 23.968 105.447 22.76 104.231 21.784C103.527 22.888 102.799 24.056 102.047 25.288C101.311 26.52 100.567 27.744 99.8147 28.96C99.0627 30.16 98.3267 31.272 97.6067 32.296C96.9027 33.32 96.2387 34.168 95.6147 34.84C95.5027 34.936 95.3587 35.08 95.1827 35.272C95.0227 35.448 94.8547 35.592 94.6787 35.704C95.4307 36.04 96.2867 36.344 97.2467 36.616C98.2067 36.888 99.3347 37.08 100.631 37.192C100.775 37.208 100.895 37.216 100.991 37.216C101.103 37.216 101.223 37.216 101.351 37.216ZM88.6787 37.192C89.5587 37.24 90.3827 37.136 91.1507 36.88C91.9187 36.608 92.6307 36.232 93.2867 35.752C92.7107 35.48 92.1267 35.2 91.5347 34.912C90.9427 34.608 90.3187 34.336 89.6627 34.096C89.2307 33.952 88.8467 33.88 88.5107 33.88C87.9187 33.88 87.4707 34.048 87.1667 34.384C86.8627 34.704 86.7107 35.064 86.7107 35.464C86.7107 35.896 86.8787 36.288 87.2147 36.64C87.5507 36.976 88.0387 37.16 88.6787 37.192ZM112.571 37.096C111.979 37.096 111.443 36.904 110.963 36.52C110.499 36.136 110.267 35.552 110.267 34.768C110.267 34.048 110.443 33.28 110.795 32.464C111.147 31.632 111.595 30.904 112.139 30.28C112.603 29.736 113.123 29.288 113.699 28.936C114.275 28.584 114.819 28.408 115.331 28.408C115.683 28.408 115.987 28.504 116.243 28.696C116.515 28.904 116.651 29.2 116.651 29.584C116.651 29.984 116.499 30.424 116.195 30.904C115.891 31.384 115.459 31.832 114.899 32.248C114.659 32.424 114.355 32.592 113.987 32.752C113.619 32.912 113.251 33.048 112.883 33.16C112.515 33.256 112.211 33.304 111.971 33.304C111.891 33.496 111.811 33.752 111.731 34.072C111.667 34.392 111.635 34.72 111.635 35.056C111.635 35.456 111.715 35.816 111.875 36.136C112.035 36.456 112.331 36.616 112.763 36.616C113.291 36.616 113.771 36.464 114.203 36.16C114.635 35.856 115.019 35.48 115.355 35.032C115.691 34.568 115.971 34.104 116.195 33.64C116.435 33.176 116.627 32.784 116.771 32.464C116.867 32.24 116.995 32.128 117.155 32.128C117.235 32.128 117.275 32.168 117.275 32.248C117.275 32.312 117.251 32.392 117.203 32.488C116.979 32.968 116.739 33.48 116.483 34.024C116.227 34.552 115.923 35.056 115.571 35.536C115.219 36 114.795 36.376 114.299 36.664C113.819 36.952 113.243 37.096 112.571 37.096ZM112.139 32.872C112.363 32.872 112.739 32.792 113.267 32.632C113.795 32.456 114.275 32.184 114.707 31.816C115.123 31.448 115.443 31.048 115.667 30.616C115.891 30.168 116.003 29.792 116.003 29.488C116.003 29.136 115.875 28.96 115.619 28.96C115.427 28.96 115.163 29.088 114.827 29.344C114.491 29.6 114.075 30.032 113.579 30.64C113.275 31.024 112.987 31.44 112.715 31.888C112.443 32.336 112.251 32.664 112.139 32.872ZM117.373 37.096C116.589 37.096 116.029 36.896 115.693 36.496C115.373 36.08 115.213 35.648 115.213 35.2C115.213 34.832 115.301 34.496 115.477 34.192C115.669 33.888 115.893 33.728 116.149 33.712C116.469 33.088 116.813 32.408 117.181 31.672C117.565 30.936 117.917 30.224 118.237 29.536C118.461 29.072 118.741 28.624 119.077 28.192C119.429 27.76 119.813 27.512 120.229 27.448H120.469C120.597 27.448 120.709 27.456 120.805 27.472C120.917 27.488 121.029 27.52 121.141 27.568C121.317 27.648 121.405 27.768 121.405 27.928C121.405 28.024 121.349 28.072 121.237 28.072C121.189 28.072 121.125 28.048 121.045 28C120.853 27.92 120.685 27.88 120.541 27.88C120.445 27.88 120.357 27.904 120.277 27.952C119.973 28.112 119.757 28.336 119.629 28.624C119.517 28.912 119.461 29.216 119.461 29.536C119.461 29.792 119.485 30.056 119.533 30.328C119.597 30.584 119.669 30.816 119.749 31.024C119.925 31.472 120.109 31.912 120.301 32.344C120.509 32.776 120.613 33.24 120.613 33.736C120.613 34.216 120.453 34.728 120.133 35.272C119.813 35.8 119.405 36.224 118.909 36.544L119.077 36.568C119.157 36.584 119.213 36.592 119.245 36.592C119.277 36.592 119.301 36.592 119.317 36.592C119.685 36.592 120.029 36.488 120.349 36.28C120.685 36.056 120.981 35.784 121.237 35.464C121.493 35.144 121.781 34.696 122.101 34.12C122.437 33.544 122.757 32.936 123.061 32.296C123.109 32.216 123.165 32.176 123.229 32.176C123.309 32.176 123.365 32.208 123.397 32.272C123.445 32.32 123.453 32.384 123.421 32.464C123.213 32.912 122.973 33.4 122.701 33.928C122.445 34.44 122.149 34.936 121.813 35.416C121.477 35.88 121.085 36.264 120.637 36.568C120.205 36.856 119.717 37 119.173 37C119.045 37 118.909 36.992 118.765 36.976C118.621 36.96 118.477 36.928 118.333 36.88C118.173 36.944 118.005 36.992 117.829 37.024C117.669 37.072 117.517 37.096 117.373 37.096ZM118.093 36.376C118.365 36.152 118.605 35.824 118.813 35.392C119.037 34.96 119.149 34.392 119.149 33.688C119.149 33.064 119.085 32.4 118.957 31.696C118.829 30.992 118.765 30.368 118.765 29.824C118.765 29.712 118.765 29.616 118.765 29.536C118.781 29.44 118.797 29.352 118.813 29.272C118.605 29.704 118.365 30.208 118.093 30.784C117.821 31.344 117.549 31.888 117.277 32.416C117.005 32.944 116.773 33.392 116.581 33.76C116.581 33.76 116.621 33.768 116.701 33.784C116.797 33.784 116.885 33.84 116.965 33.952C117.045 34.048 117.077 34.248 117.061 34.552C117.045 34.952 117.133 35.328 117.325 35.68C117.533 36.016 117.789 36.248 118.093 36.376ZM117.181 36.712C117.277 36.712 117.365 36.704 117.445 36.688C117.525 36.656 117.597 36.632 117.661 36.616C117.421 36.44 117.205 36.208 117.013 35.92C116.837 35.616 116.733 35.232 116.701 34.768C116.413 35.072 116.269 35.4 116.269 35.752C116.269 36.008 116.349 36.232 116.509 36.424C116.669 36.616 116.893 36.712 117.181 36.712ZM125.673 27.256C125.433 27.256 125.233 27.176 125.073 27.016C124.929 26.84 124.857 26.632 124.857 26.392C124.857 26.088 124.977 25.824 125.217 25.6C125.457 25.376 125.721 25.264 126.009 25.264C126.265 25.264 126.473 25.344 126.633 25.504C126.793 25.664 126.873 25.856 126.873 26.08C126.873 26.384 126.753 26.656 126.513 26.896C126.273 27.136 125.993 27.256 125.673 27.256ZM123.729 37C123.137 37 122.721 36.832 122.481 36.496C122.241 36.144 122.121 35.744 122.121 35.296C122.121 35.056 122.145 34.816 122.193 34.576C122.257 34.32 122.329 34.088 122.409 33.88L124.017 29.776C124.065 29.648 124.089 29.536 124.089 29.44C124.089 29.28 124.049 29.144 123.969 29.032C123.889 28.904 123.833 28.816 123.801 28.768L125.121 28.72C125.361 28.704 125.529 28.736 125.625 28.816C125.737 28.88 125.793 28.96 125.793 29.056C125.793 29.152 125.737 29.328 125.625 29.584L123.633 34.264C123.633 34.264 123.585 34.368 123.489 34.576C123.409 34.768 123.361 34.896 123.345 34.96C123.297 35.2 123.265 35.352 123.249 35.416C123.233 35.48 123.225 35.52 123.225 35.536C123.225 35.552 123.225 35.616 123.225 35.728C123.225 35.936 123.273 36.112 123.369 36.256C123.481 36.4 123.665 36.472 123.921 36.472C124.081 36.472 124.265 36.424 124.473 36.328C124.681 36.232 124.833 36.136 124.929 36.04C125.329 35.624 125.721 35.08 126.105 34.408C126.505 33.72 126.873 33.04 127.209 32.368C127.273 32.208 127.353 32.128 127.449 32.128C127.529 32.128 127.569 32.184 127.569 32.296C127.569 32.36 127.545 32.456 127.497 32.584C127.337 32.92 127.137 33.336 126.897 33.832C126.657 34.328 126.369 34.824 126.033 35.32C125.713 35.8 125.361 36.2 124.977 36.52C124.593 36.84 124.177 37 123.729 37ZM125.571 44.656C124.051 44.656 123.291 44.032 123.291 42.784C123.291 42.192 123.499 41.664 123.915 41.2C124.331 40.736 124.827 40.336 125.403 40C126.203 39.52 126.979 39.136 127.731 38.848C128.483 38.56 129.195 38.304 129.867 38.08C130.555 37.872 131.203 37.64 131.811 37.384C132.099 36.536 132.291 35.648 132.387 34.72C132.435 34.24 132.459 33.824 132.459 33.472C132.459 33.104 132.435 32.864 132.387 32.752C132.211 33.088 131.979 33.496 131.691 33.976C131.403 34.456 131.075 34.928 130.707 35.392C130.339 35.84 129.939 36.216 129.507 36.52C129.091 36.824 128.659 36.976 128.211 36.976C128.051 36.976 127.899 36.952 127.755 36.904C127.307 36.712 126.979 36.44 126.771 36.088C126.579 35.736 126.483 35.336 126.483 34.888C126.483 34.168 126.691 33.392 127.107 32.56C127.523 31.728 128.019 30.968 128.595 30.28C129.059 29.72 129.603 29.272 130.227 28.936C130.851 28.6 131.483 28.432 132.123 28.432C132.859 28.432 133.547 28.68 134.187 29.176C134.427 29.368 134.547 29.576 134.547 29.8C134.547 30.04 134.451 30.16 134.259 30.16C134.099 30.16 133.987 30.056 133.923 29.848C133.699 29.256 133.339 28.96 132.843 28.96C132.443 28.96 131.987 29.136 131.475 29.488C130.963 29.824 130.483 30.248 130.035 30.76C129.651 31.192 129.275 31.688 128.907 32.248C128.555 32.808 128.259 33.36 128.019 33.904C127.795 34.448 127.683 34.92 127.683 35.32C127.683 35.592 127.747 35.824 127.875 36.016C128.003 36.208 128.203 36.304 128.475 36.304C128.843 36.304 129.227 36.128 129.627 35.776C130.043 35.424 130.435 34.992 130.803 34.48C131.187 33.968 131.515 33.448 131.787 32.92C132.075 32.392 132.275 31.952 132.387 31.6C132.499 31.232 132.651 31.008 132.843 30.928C133.035 30.832 133.227 30.784 133.419 30.784C133.611 30.784 133.771 30.736 133.899 30.64C133.963 30.992 134.003 31.352 134.019 31.72C134.051 32.072 134.067 32.432 134.067 32.8C134.067 34.032 133.907 35.272 133.587 36.52C133.875 36.296 134.171 36.056 134.475 35.8C134.795 35.528 135.067 35.24 135.291 34.936C135.691 34.392 135.987 33.896 136.179 33.448C136.387 32.984 136.547 32.624 136.659 32.368C136.755 32.208 136.859 32.128 136.971 32.128C137.067 32.128 137.115 32.176 137.115 32.272C137.115 32.352 137.083 32.448 137.019 32.56C136.619 33.408 136.251 34.136 135.915 34.744C135.579 35.336 135.211 35.84 134.811 36.256C134.411 36.656 133.915 37 133.323 37.288C133.067 38.056 132.683 38.864 132.171 39.712C131.659 40.56 131.059 41.36 130.371 42.112C129.683 42.864 128.931 43.472 128.115 43.936C127.299 44.416 126.451 44.656 125.571 44.656ZM124.995 44.176C125.347 44.176 125.715 44.096 126.099 43.936C126.499 43.792 126.875 43.616 127.227 43.408C127.579 43.2 127.851 43.024 128.043 42.88C128.411 42.592 128.787 42.232 129.171 41.8C129.555 41.368 129.891 40.952 130.179 40.552C130.451 40.168 130.707 39.76 130.947 39.328C131.203 38.912 131.419 38.496 131.595 38.08C131.467 38.128 131.307 38.184 131.115 38.248C130.939 38.312 130.811 38.36 130.731 38.392C130.203 38.568 129.619 38.768 128.979 38.992C128.355 39.232 127.731 39.488 127.107 39.76C126.483 40.048 125.915 40.36 125.403 40.696C124.955 41 124.587 41.4 124.299 41.896C123.995 42.392 123.843 42.824 123.843 43.192C123.843 43.464 123.939 43.696 124.131 43.888C124.307 44.08 124.595 44.176 124.995 44.176ZM134.369 37.192C134.945 36.024 135.497 34.872 136.025 33.736C136.569 32.584 137.121 31.488 137.681 30.448C138.001 29.872 138.265 29.472 138.473 29.248C138.697 29.008 138.993 28.888 139.361 28.888C139.489 28.888 139.625 28.912 139.769 28.96C139.913 28.992 140.057 29.008 140.201 29.008C140.297 29.008 140.369 29 140.417 28.984C140.193 29.112 139.905 29.432 139.553 29.944C139.201 30.44 138.841 31.016 138.473 31.672C138.105 32.328 137.777 32.944 137.489 33.52C137.793 33.152 138.105 32.784 138.425 32.416C138.761 32.048 139.129 31.696 139.529 31.36C139.913 31.024 140.369 30.68 140.897 30.328C141.441 29.96 141.969 29.656 142.481 29.416C142.993 29.176 143.401 29.056 143.705 29.056C143.817 29.056 143.897 29.064 143.945 29.08C143.945 29.08 143.857 29.24 143.681 29.56C143.505 29.864 143.281 30.272 143.009 30.784C142.753 31.28 142.489 31.816 142.217 32.392C141.945 32.952 141.697 33.496 141.473 34.024C141.265 34.536 141.129 34.968 141.065 35.32C141.017 35.528 140.993 35.72 140.993 35.896C140.993 36.152 141.041 36.32 141.137 36.4C141.233 36.48 141.337 36.52 141.449 36.52C141.753 36.52 142.073 36.36 142.409 36.04C142.745 35.704 143.065 35.296 143.369 34.816C143.689 34.336 143.969 33.872 144.209 33.424C144.465 32.96 144.649 32.608 144.761 32.368C144.825 32.24 144.873 32.168 144.905 32.152C144.937 32.12 144.985 32.104 145.049 32.104C145.145 32.104 145.193 32.168 145.193 32.296C145.193 32.376 145.169 32.464 145.121 32.56C144.929 32.928 144.697 33.368 144.425 33.88C144.169 34.392 143.873 34.896 143.537 35.392C143.201 35.872 142.833 36.28 142.433 36.616C142.033 36.936 141.601 37.096 141.137 37.096C140.817 37.096 140.481 36.984 140.129 36.76C139.793 36.536 139.625 36.12 139.625 35.512C139.625 35.336 139.641 35.152 139.673 34.96C139.705 34.752 139.761 34.528 139.841 34.288C139.969 33.968 140.121 33.624 140.297 33.256C140.473 32.888 140.761 32.384 141.161 31.744C141.273 31.568 141.337 31.432 141.353 31.336C141.385 31.24 141.401 31.16 141.401 31.096C141.401 30.904 141.313 30.808 141.137 30.808C140.993 30.808 140.777 30.888 140.489 31.048C140.217 31.208 139.873 31.488 139.457 31.888C139.057 32.272 138.577 32.816 138.017 33.52C137.473 34.224 136.841 35.264 136.121 36.64C136.009 36.848 135.881 36.96 135.737 36.976C135.609 36.992 135.425 37.008 135.185 37.024C135.025 37.04 134.873 37.048 134.729 37.048C134.585 37.064 134.465 37.112 134.369 37.192Z" fill="url(#paint1_radial_3_15)"/>
<defs>
<radialGradient id="paint0_radial_3_15" cx="0" cy="0" r="1" gradientUnits="userSpaceOnUse" gradientTransform="translate(81.5 30.5) rotate(90) scale(30.5 81.5)">
<stop stop-color="#B6B6B6" stop-opacity="0.5"/>
<stop offset="1" stop-color="#4F4F4F" stop-opacity="0.91"/>
</radialGradient>
<radialGradient id="paint1_radial_3_15" cx="0" cy="0" r="1" gradientUnits="userSpaceOnUse" gradientTransform="translate(76.5 32) rotate(90) scale(15 67.5)">
<stop/>
<stop offset="0.0001"/>
<stop offset="1" stop-color="#FF9900"/>
</radialGradient>
</defs>
</svg>
